<svg xmlns="http://www.w3.org/2000/svg" viewBox="0 0 120 120" width="120" height="120">
  <g transform="translate(10, 5)">
    <!-- Top Layer (Cyan) -->
    <polygon points="50,15 85,32.5 50,50 15,32.5" fill="#00e5ff" opacity="0.85"/>
    <polygon points="50,15 50,20 15,37.5 15,32.5" fill="#00b2cc" opacity="0.85"/>
    <polygon points="50,15 85,32.5 85,37.5 50,20" fill="#00b2cc" opacity="0.85"/>

    <!-- Middle Layer (Purple) -->
    <polygon points="50,45 85,62.5 50,80 15,62.5" fill="#a855f7" opacity="0.85"/>
    <polygon points="50,45 50,50 15,67.5 15,62.5" fill="#9333ea" opacity="0.85"/>
    <polygon points="50,45 85,62.5 85,67.5 50,50" fill="#9333ea" opacity="0.85"/>

    <!-- Bottom Layer (Orange) -->
    <polygon points="50,75 85,92.5 50,110 15,92.5" fill="#ea580c" opacity="0.85"/>
    <polygon points="50,75 50,80 15,97.5 15,92.5" fill="#c2410c" opacity="0.85"/>
    <polygon points="50,75 85,92.5 85,97.5 50,80" fill="#c2410c" opacity="0.85"/>
  </g>
</svg>
