<svg xmlns="http://www.w3.org/2000/svg" viewBox="0 0 100 100" width="100" height="100">
  <circle cx="50" cy="50" r="45" fill="#18181b" />
  <path d="M 50,15 C 30.7,15 15,30.7 15,50 C 15,65.5 25,78.6 39,83.3 C 40.8,83.6 41.4,82.5 41.4,81.6 L 41.4,75.1 C 31.7,77.2 29.6,70.5 29.6,70.5 C 28,66.4 25.7,65.3 25.7,65.3 C 22.5,63.1 25.9,63.2 25.9,63.2 C 29.4,63.4 31.3,66.8 31.3,66.8 C 34.4,72.1 39.5,70.5 41.5,69.6 C 41.8,67.4 42.7,65.9 43.7,65 C 36,64.1 27.8,61.1 27.8,47.8 C 27.8,44 29.2,40.9 31.5,38.5 C 31.1,37.6 29.9,34 31.9,29.1 C 31.9,29.1 34.8,28.2 41.4,32.6 C 44.1,31.8 47,31.4 50,31.4 C 53,31.4 55.9,31.8 58.6,32.6 C 65.2,28.2 68.1,29.1 68.1,29.1 C 70.1,34 68.9,37.6 68.5,38.5 C 70.8,40.9 72.2,44 72.2,47.8 C 72.2,61.2 64,64.1 56.2,65 C 57.5,66.1 58.6,68.3 58.6,71.6 L 58.6,81.6 C 58.6,82.5 59.2,83.6 61.1,83.3 C 75,78.6 85,65.5 85,50 C 85,30.7 69.3,15 50,15 Z" fill="#ffffff" />
</svg>
